<svg xmlns="http://www.w3.org/2000/svg" width="1200" height="630" viewBox="0 0 1200 630">
  <defs>
    <clipPath id="clip">
      <rect width="1200" height="630"/>
    </clipPath>
  </defs>

  <!-- Background -->
  <rect width="1200" height="630" fill="#111111"/>

  <!-- Grid pattern (subtle route reference) -->
  <g opacity="0.03" clip-path="url(#clip)">
    <line x1="0" y1="0" x2="0" y2="630" stroke="#ffffff" stroke-width="1"/>
    <line x1="80" y1="0" x2="80" y2="630" stroke="#ffffff" stroke-width="1"/>
    <line x1="160" y1="0" x2="160" y2="630" stroke="#ffffff" stroke-width="1"/>
    <line x1="240" y1="0" x2="240" y2="630" stroke="#ffffff" stroke-width="1"/>
    <line x1="320" y1="0" x2="320" y2="630" stroke="#ffffff" stroke-width="1"/>
    <line x1="400" y1="0" x2="400" y2="630" stroke="#ffffff" stroke-width="1"/>
    <line x1="480" y1="0" x2="480" y2="630" stroke="#ffffff" stroke-width="1"/>
    <line x1="560" y1="0" x2="560" y2="630" stroke="#ffffff" stroke-width="1"/>
    <line x1="640" y1="0" x2="640" y2="630" stroke="#ffffff" stroke-width="1"/>
    <line x1="720" y1="0" x2="720" y2="630" stroke="#ffffff" stroke-width="1"/>
    <line x1="800" y1="0" x2="800" y2="630" stroke="#ffffff" stroke-width="1"/>
    <line x1="880" y1="0" x2="880" y2="630" stroke="#ffffff" stroke-width="1"/>
    <line x1="960" y1="0" x2="960" y2="630" stroke="#ffffff" stroke-width="1"/>
    <line x1="1040" y1="0" x2="1040" y2="630" stroke="#ffffff" stroke-width="1"/>
    <line x1="1120" y1="0" x2="1120" y2="630" stroke="#ffffff" stroke-width="1"/>
    <line x1="1200" y1="0" x2="1200" y2="630" stroke="#ffffff" stroke-width="1"/>
    <line x1="0" y1="0" x2="1200" y2="0" stroke="#ffffff" stroke-width="1"/>
    <line x1="0" y1="80" x2="1200" y2="80" stroke="#ffffff" stroke-width="1"/>
    <line x1="0" y1="160" x2="1200" y2="160" stroke="#ffffff" stroke-width="1"/>
    <line x1="0" y1="240" x2="1200" y2="240" stroke="#ffffff" stroke-width="1"/>
    <line x1="0" y1="320" x2="1200" y2="320" stroke="#ffffff" stroke-width="1"/>
    <line x1="0" y1="400" x2="1200" y2="400" stroke="#ffffff" stroke-width="1"/>
    <line x1="0" y1="480" x2="1200" y2="480" stroke="#ffffff" stroke-width="1"/>
    <line x1="0" y1="560" x2="1200" y2="560" stroke="#ffffff" stroke-width="1"/>
  </g>

  <!-- Vertical orange accent line -->
  <rect x="920" y="0" width="2" height="630" fill="#ff4600" opacity="0.15"/>

  <!-- Horizontal orange accent line -->
  <rect x="0" y="530" width="1200" height="1" fill="#ff4600" opacity="0.1"/>

  <!-- Large faded number -->
  <text x="1050" y="280" font-family="Arial,Helvetica,sans-serif" font-weight="900" font-size="320" fill="#ffffff" opacity="0.02" text-anchor="middle">01</text>

  <!-- Orange accent bar (brand marker) -->
  <rect x="80" y="180" width="60" height="3" fill="#ff4600"/>

  <!-- Brand label -->
  <text x="152" y="183" font-family="Arial,Helvetica,sans-serif" font-weight="700" font-size="13" fill="#ff4600" letter-spacing="4" text-anchor="start">UGC LOGISTICS</text>

  <!-- Main headline -->
  <text x="80" y="260" font-family="Arial,Helvetica,sans-serif" font-weight="900" font-size="56" fill="#ffffff" letter-spacing="-1">One line of control</text>
  <text x="80" y="330" font-family="Arial,Helvetica,sans-serif" font-weight="900" font-size="56" fill="#ffffff" letter-spacing="-1">across every handoff.</text>

  <!-- Sub-headline -->
  <text x="80" y="390" font-family="Arial,Helvetica,sans-serif" font-weight="400" font-size="18" fill="#ffffff" opacity="0.45">Freight Forwarding &amp; Supply Chain Coordination</text>
  <text x="80" y="416" font-family="Arial,Helvetica,sans-serif" font-weight="400" font-size="18" fill="#ffffff" opacity="0.45">Domestic. International. Customs. Warehousing. Charter.</text>

  <!-- Bottom bar -->
  <rect x="0" y="590" width="1200" height="40" fill="#ff4600"/>

  <!-- Logo in bottom bar -->
  <rect x="80" y="598" width="24" height="24" fill="#ffffff"/>
  <text x="92" y="617" font-family="Arial,Helvetica,sans-serif" font-weight="900" font-size="15" fill="#ff4600" text-anchor="middle">U</text>

  <!-- Company name in bottom bar -->
  <text x="116" y="616" font-family="Arial,Helvetica,sans-serif" font-weight="700" font-size="14" fill="#ffffff" letter-spacing="1">PT Utama Globalindo Cargo</text>

  <!-- Location in bottom bar -->
  <text x="1120" y="616" font-family="Arial,Helvetica,sans-serif" font-weight="400" font-size="13" fill="#ffffff" opacity="0.8" text-anchor="end">Jakarta, Indonesia</text>

  <!-- Diamond accent -->
  <rect x="80" y="460" width="8" height="8" fill="#ff4600" transform="rotate(45, 84, 464)"/>
  <text x="100" y="468" font-family="Arial,Helvetica,sans-serif" font-weight="400" font-size="12" fill="#ffffff" opacity="0.25" letter-spacing="2">UTAMAGLOBALINDOCARGO.COM</text>
</svg>
